<mxfile host="app.diagrams.net" modified="2020-11-27T05:04:38.184Z" agent="5.0 (Windows)" etag="EWkV6XSMU9UAoReKdvLN" version="13.10.4" type="github">
  <diagram id="DiEP--hVSpdUmuo6CAGT" name="Page-1">
    <mxGraphModel dx="1422" dy="803" grid="1" gridSize="10" guides="1" tooltips="1" connect="1" arrows="1" fold="1" page="1" pageScale="1" pageWidth="850" pageHeight="1100" math="0" shadow="0">
      <root>
        <mxCell id="0" />
        <mxCell id="1" parent="0" />
        <mxCell id="xbLgzUrudLleNk4dvp5E-1" value="X1" style="whiteSpace=wrap;html=1;aspect=fixed;" vertex="1" parent="1">
          <mxGeometry x="385" width="80" height="80" as="geometry" />
        </mxCell>
        <mxCell id="xbLgzUrudLleNk4dvp5E-4" value="&lt;div&gt;Job1&lt;/div&gt;&lt;div&gt;Job2&lt;/div&gt;&lt;div&gt;Job3&lt;br&gt;&lt;/div&gt;" style="whiteSpace=wrap;html=1;aspect=fixed;" vertex="1" parent="1">
          <mxGeometry x="200" y="160" width="80" height="80" as="geometry" />
        </mxCell>
        <mxCell id="xbLgzUrudLleNk4dvp5E-5" value="Job schedule" style="text;html=1;strokeColor=none;fillColor=none;align=center;verticalAlign=middle;whiteSpace=wrap;rounded=0;" vertex="1" parent="1">
          <mxGeometry x="200" y="130" width="80" height="20" as="geometry" />
        </mxCell>
        <mxCell id="xbLgzUrudLleNk4dvp5E-6" value="&lt;div&gt;Job1&lt;/div&gt;&lt;div&gt;Job2&lt;/div&gt;&lt;div&gt;Job3&lt;br&gt;&lt;/div&gt;" style="whiteSpace=wrap;html=1;aspect=fixed;" vertex="1" parent="1">
          <mxGeometry x="320" y="160" width="80" height="80" as="geometry" />
        </mxCell>
        <mxCell id="xbLgzUrudLleNk4dvp5E-7" value="Production Planning (in factory)" style="text;html=1;strokeColor=none;fillColor=none;align=center;verticalAlign=middle;whiteSpace=wrap;rounded=0;" vertex="1" parent="1">
          <mxGeometry x="300" y="130" width="120" height="20" as="geometry" />
        </mxCell>
        <mxCell id="xbLgzUrudLleNk4dvp5E-8" value="&lt;div&gt;Time(hours)&lt;/div&gt;&lt;div&gt;Login/logout&lt;br&gt;&lt;/div&gt;" style="whiteSpace=wrap;html=1;aspect=fixed;" vertex="1" parent="1">
          <mxGeometry x="460" y="160" width="80" height="80" as="geometry" />
        </mxCell>
        <mxCell id="xbLgzUrudLleNk4dvp5E-9" value="Fabmax (in factory)" style="text;html=1;strokeColor=none;fillColor=none;align=center;verticalAlign=middle;whiteSpace=wrap;rounded=0;" vertex="1" parent="1">
          <mxGeometry x="440" y="130" width="120" height="20" as="geometry" />
        </mxCell>
        <mxCell id="xbLgzUrudLleNk4dvp5E-10" value="Run a report daily to check how jobs have been progressing daily" style="whiteSpace=wrap;html=1;aspect=fixed;" vertex="1" parent="1">
          <mxGeometry x="600" y="160" width="110" height="110" as="geometry" />
        </mxCell>
        <mxCell id="xbLgzUrudLleNk4dvp5E-11" value="Updates automatically" style="text;html=1;strokeColor=none;fillColor=none;align=center;verticalAlign=middle;whiteSpace=wrap;rounded=0;" vertex="1" parent="1">
          <mxGeometry x="580" y="130" width="120" height="20" as="geometry" />
        </mxCell>
        <mxCell id="xbLgzUrudLleNk4dvp5E-12" value="" style="html=1;verticalLabelPosition=bottom;labelBackgroundColor=#ffffff;verticalAlign=top;shadow=0;dashed=0;strokeWidth=2;shape=mxgraph.ios7.misc.star;fillColor=#0080f0;strokeColor=none;" vertex="1" parent="1">
          <mxGeometry x="710" y="240" width="12" height="12" as="geometry" />
        </mxCell>
        <mxCell id="xbLgzUrudLleNk4dvp5E-14" value="" style="endArrow=classic;html=1;exitX=0;exitY=1;exitDx=0;exitDy=0;" edge="1" parent="1" source="xbLgzUrudLleNk4dvp5E-1">
          <mxGeometry width="50" height="50" relative="1" as="geometry">
            <mxPoint x="400" y="430" as="sourcePoint" />
            <mxPoint x="240" y="120" as="targetPoint" />
          </mxGeometry>
        </mxCell>
        <mxCell id="xbLgzUrudLleNk4dvp5E-16" value="" style="endArrow=classic;html=1;exitX=0.25;exitY=1;exitDx=0;exitDy=0;" edge="1" parent="1" source="xbLgzUrudLleNk4dvp5E-1">
          <mxGeometry width="50" height="50" relative="1" as="geometry">
            <mxPoint x="400" y="430" as="sourcePoint" />
            <mxPoint x="370" y="120" as="targetPoint" />
          </mxGeometry>
        </mxCell>
        <mxCell id="xbLgzUrudLleNk4dvp5E-17" value="" style="endArrow=classic;html=1;exitX=0.75;exitY=1;exitDx=0;exitDy=0;entryX=0.5;entryY=0;entryDx=0;entryDy=0;" edge="1" parent="1" source="xbLgzUrudLleNk4dvp5E-1" target="xbLgzUrudLleNk4dvp5E-9">
          <mxGeometry width="50" height="50" relative="1" as="geometry">
            <mxPoint x="400" y="430" as="sourcePoint" />
            <mxPoint x="450" y="380" as="targetPoint" />
          </mxGeometry>
        </mxCell>
        <mxCell id="xbLgzUrudLleNk4dvp5E-18" value="" style="endArrow=classic;html=1;exitX=1;exitY=0.25;exitDx=0;exitDy=0;entryX=0.083;entryY=0.5;entryDx=0;entryDy=0;entryPerimeter=0;" edge="1" parent="1" source="xbLgzUrudLleNk4dvp5E-9" target="xbLgzUrudLleNk4dvp5E-11">
          <mxGeometry width="50" height="50" relative="1" as="geometry">
            <mxPoint x="400" y="430" as="sourcePoint" />
            <mxPoint x="640" y="120" as="targetPoint" />
          </mxGeometry>
        </mxCell>
        <mxCell id="xbLgzUrudLleNk4dvp5E-20" value="" style="endArrow=none;dashed=1;html=1;" edge="1" parent="1">
          <mxGeometry width="50" height="50" relative="1" as="geometry">
            <mxPoint x="160" y="80" as="sourcePoint" />
            <mxPoint x="160" y="80" as="targetPoint" />
            <Array as="points">
              <mxPoint x="430" y="90" />
              <mxPoint x="430" y="280" />
              <mxPoint x="160" y="280" />
            </Array>
          </mxGeometry>
        </mxCell>
        <mxCell id="xbLgzUrudLleNk4dvp5E-21" value="" style="endArrow=classic;html=1;" edge="1" parent="1">
          <mxGeometry width="50" height="50" relative="1" as="geometry">
            <mxPoint x="280" y="280" as="sourcePoint" />
            <mxPoint x="280" y="330" as="targetPoint" />
          </mxGeometry>
        </mxCell>
        <mxCell id="xbLgzUrudLleNk4dvp5E-22" value="XML file" style="whiteSpace=wrap;html=1;aspect=fixed;" vertex="1" parent="1">
          <mxGeometry x="240" y="330" width="80" height="80" as="geometry" />
        </mxCell>
        <mxCell id="xbLgzUrudLleNk4dvp5E-23" value="Export" style="text;html=1;strokeColor=none;fillColor=none;align=center;verticalAlign=middle;whiteSpace=wrap;rounded=0;" vertex="1" parent="1">
          <mxGeometry x="280" y="290" width="40" height="20" as="geometry" />
        </mxCell>
        <mxCell id="xbLgzUrudLleNk4dvp5E-24" value="" style="endArrow=none;dashed=1;html=1;" edge="1" parent="1">
          <mxGeometry width="50" height="50" relative="1" as="geometry">
            <mxPoint x="800" y="560" as="sourcePoint" />
            <mxPoint x="800" y="560" as="targetPoint" />
            <Array as="points">
              <mxPoint x="380" y="560" />
              <mxPoint x="380" y="320" />
              <mxPoint x="800" y="320" />
            </Array>
          </mxGeometry>
        </mxCell>
        <mxCell id="xbLgzUrudLleNk4dvp5E-25" value="Odoo enviroment" style="text;html=1;strokeColor=none;fillColor=none;align=center;verticalAlign=middle;whiteSpace=wrap;rounded=0;" vertex="1" parent="1">
          <mxGeometry x="400" y="330" width="130" height="20" as="geometry" />
        </mxCell>
        <mxCell id="xbLgzUrudLleNk4dvp5E-26" value="" style="endArrow=classic;html=1;exitX=1;exitY=0.5;exitDx=0;exitDy=0;" edge="1" parent="1" source="xbLgzUrudLleNk4dvp5E-22">
          <mxGeometry width="50" height="50" relative="1" as="geometry">
            <mxPoint x="400" y="430" as="sourcePoint" />
            <mxPoint x="380" y="370" as="targetPoint" />
          </mxGeometry>
        </mxCell>
        <mxCell id="xbLgzUrudLleNk4dvp5E-27" value="Import" style="text;html=1;strokeColor=none;fillColor=none;align=center;verticalAlign=middle;whiteSpace=wrap;rounded=0;" vertex="1" parent="1">
          <mxGeometry x="330" y="340" width="40" height="20" as="geometry" />
        </mxCell>
        <mxCell id="xbLgzUrudLleNk4dvp5E-28" value="1. Read the data from the XML" style="text;html=1;strokeColor=none;fillColor=none;align=center;verticalAlign=middle;whiteSpace=wrap;rounded=0;" vertex="1" parent="1">
          <mxGeometry x="400" y="360" width="170" height="20" as="geometry" />
        </mxCell>
        <mxCell id="xbLgzUrudLleNk4dvp5E-29" value="3. Manual feed/input - is to maintain the production/calendar" style="text;html=1;strokeColor=none;fillColor=none;align=center;verticalAlign=middle;whiteSpace=wrap;rounded=0;" vertex="1" parent="1">
          <mxGeometry x="380" y="450" width="370" height="20" as="geometry" />
        </mxCell>
        <mxCell id="xbLgzUrudLleNk4dvp5E-30" value="2. Spread them to the production planner/calendar" style="text;html=1;strokeColor=none;fillColor=none;align=center;verticalAlign=middle;whiteSpace=wrap;rounded=0;" vertex="1" parent="1">
          <mxGeometry x="390" y="420" width="300" height="20" as="geometry" />
        </mxCell>
        <mxCell id="xbLgzUrudLleNk4dvp5E-31" value="&lt;div&gt;a. Create client&lt;br&gt;&lt;/div&gt;&lt;div&gt;b. Job details (job card/work) &lt;br&gt;&lt;/div&gt;" style="text;html=1;strokeColor=none;fillColor=none;align=center;verticalAlign=middle;whiteSpace=wrap;rounded=0;" vertex="1" parent="1">
          <mxGeometry x="420" y="380" width="250" height="40" as="geometry" />
        </mxCell>
        <mxCell id="xbLgzUrudLleNk4dvp5E-32" value="" style="endArrow=classic;html=1;entryX=0.954;entryY=-0.05;entryDx=0;entryDy=0;entryPerimeter=0;exitX=1;exitY=0.5;exitDx=0;exitDy=0;exitPerimeter=0;" edge="1" parent="1" source="xbLgzUrudLleNk4dvp5E-12" target="xbLgzUrudLleNk4dvp5E-29">
          <mxGeometry width="50" height="50" relative="1" as="geometry">
            <mxPoint x="740" y="260" as="sourcePoint" />
            <mxPoint x="450" y="380" as="targetPoint" />
          </mxGeometry>
        </mxCell>
        <mxCell id="xbLgzUrudLleNk4dvp5E-33" value="Output" style="text;html=1;strokeColor=none;fillColor=none;align=center;verticalAlign=middle;whiteSpace=wrap;rounded=0;" vertex="1" parent="1">
          <mxGeometry x="730" y="260" width="40" height="20" as="geometry" />
        </mxCell>
      </root>
    </mxGraphModel>
  </diagram>
</mxfile>
